<svg width="187" height="28" viewBox="0 0 187 28" fill="none" xmlns="http://www.w3.org/2000/svg">
<g clip-path="url(#clip0)">
<path d="M62.8734 6.21479C62.9773 6.21479 63.0812 6.31725 63.1457 6.5469L66.6203 19.0436C66.8926 20.0364 66.975 20.16 67.3941 20.16C67.9601 20.16 68.0425 20.0364 68.2932 19.0436L71.6246 6.5469C71.6891 6.32078 71.7715 6.21479 71.8969 6.21479H73.5303C73.7596 6.21479 73.8455 6.31725 73.8026 6.5469L70.3064 19.5382C70.0986 20.3225 69.9088 20.8596 69.7404 21.1493C69.4252 21.7287 68.9022 21.9548 67.3941 21.9548C66.4305 21.9548 65.8036 21.8312 65.5099 21.5627C65.2161 21.2942 64.9224 20.6335 64.6287 19.5382L60.9677 6.54337C60.9247 6.31725 61.0107 6.21125 61.24 6.21125H62.8734V6.21479Z" fill="white"/>
<path d="M83.8145 13.6908V20.9196C83.8145 21.2093 83.6891 21.393 83.4169 21.499C82.6001 21.8099 81.0491 21.9548 78.7672 21.9548C77.3021 21.9548 76.2526 21.7287 75.6472 21.2941C75.0382 20.8383 74.7266 19.9515 74.7266 18.6301C74.7266 16.2559 75.9194 15.4503 78.4341 15.4503L81.8049 15.4291V14.0441C81.8049 12.744 81.0311 12.1857 79.0825 12.1857H75.9409C75.6902 12.1857 75.6257 12.1221 75.6257 11.8748V11.0269C75.6257 10.8007 75.6902 10.7583 75.9194 10.6947C76.9045 10.5287 77.972 10.4474 79.0825 10.4474C82.3494 10.4474 83.8145 11.4402 83.8145 13.6908ZM81.8049 17.0367H78.4735C77.2806 17.0367 76.7147 17.4501 76.7147 18.5842C76.7147 19.9056 77.3415 20.2589 79.1219 20.2589C80.2753 20.2589 81.1529 20.1776 81.8013 20.0116V17.0367H81.8049Z" fill="white"/>
<path d="M89.5749 6.21477C89.7827 6.21477 89.8901 6.31723 89.8901 6.52569V21.5415C89.8901 21.7464 89.7862 21.8524 89.5749 21.8524H88.1922C87.9844 21.8524 87.877 21.7499 87.877 21.5415V6.52569C87.877 6.32076 87.9808 6.21477 88.1922 6.21477H89.5749Z" fill="white"/>
<path d="M95.0405 8.46535C94.2238 8.46535 93.8047 8.05197 93.8047 7.24642C93.8047 6.44087 94.2238 6.04869 95.0405 6.04869C95.8573 6.04869 96.2764 6.44087 96.2764 7.24642C96.2764 8.05197 95.8573 8.46535 95.0405 8.46535ZM95.7319 10.5499C95.9396 10.5499 96.0471 10.6523 96.0471 10.8608V21.5414C96.0471 21.7464 95.9432 21.8523 95.7319 21.8523H94.3492C94.1414 21.8523 94.0339 21.7499 94.0339 21.5414V10.8608C94.0339 10.6559 94.1378 10.5499 94.3492 10.5499H95.7319Z" fill="white"/>
<path d="M109.112 6.23599C109.32 6.23599 109.427 6.33845 109.427 6.54691V21.273C109.427 21.4602 109.323 21.5839 109.09 21.6051C107.604 21.8312 106.139 21.9549 104.734 21.9549C103.058 21.9549 102.033 21.7464 101.26 21.273C100.128 20.4462 99.877 19.0224 99.8555 16.2347C99.8555 13.8993 100.171 12.373 100.776 11.6063C101.385 10.8432 102.682 10.451 104.63 10.451C105.762 10.451 106.683 10.4934 107.417 10.5959V6.54337C107.417 6.33845 107.521 6.23246 107.733 6.23246H109.112V6.23599ZM107.417 12.1822H104.759C103.502 12.1822 102.707 12.4296 102.374 12.9454C102.037 13.44 101.872 14.5353 101.872 16.21C101.872 17.8635 102.041 18.9376 102.352 19.4534C102.689 19.9692 103.484 20.2166 104.738 20.2166C105.637 20.2166 106.518 20.153 107.417 20.0505V12.1822Z" fill="white"/>
<path d="M121.949 13.6908V20.9196C121.949 21.2093 121.824 21.393 121.552 21.499C120.735 21.8099 119.184 21.9548 116.902 21.9548C115.437 21.9548 114.387 21.7287 113.782 21.2941C113.173 20.8383 112.861 19.9515 112.861 18.6301C112.861 16.2559 114.054 15.4503 116.569 15.4503L119.94 15.4291V14.0441C119.94 12.7439 119.166 12.1857 117.217 12.1857H114.076C113.825 12.1857 113.76 12.1221 113.76 11.8748V11.0268C113.76 10.8007 113.825 10.7583 114.054 10.6947C115.039 10.5287 116.107 10.4474 117.217 10.4474C120.484 10.4474 121.949 11.4402 121.949 13.6908ZM119.94 17.0367H116.608C115.415 17.0367 114.849 17.4501 114.849 18.5842C114.849 19.9056 115.476 20.2589 117.257 20.2589C118.41 20.2589 119.288 20.1776 119.936 20.0116V17.0367H119.94Z" fill="white"/>
<path d="M128.234 7.43367C128.463 7.37007 128.588 7.45487 128.588 7.70219V10.5746H130.788C131.017 10.5746 131.124 10.6771 131.124 10.8855V11.8571C131.124 12.0621 131.021 12.1681 130.788 12.1681H128.588V19.1071C128.588 20.0151 128.839 20.2236 129.95 20.2236H130.956C131.185 20.2236 131.293 20.326 131.293 20.5133V21.5061C131.293 21.6934 131.189 21.7958 130.978 21.8382C130.641 21.9195 130.243 21.9619 129.806 21.9619C128.989 21.9619 128.717 21.9619 128.026 21.7958C127.105 21.5697 126.665 21.0115 126.582 19.6053V12.161H125.411C125.203 12.161 125.096 12.0585 125.096 11.8501V10.882C125.096 10.6735 125.2 10.5711 125.411 10.5711H126.582V8.09083C126.582 7.90358 126.665 7.80112 126.855 7.75872L128.234 7.43367Z" fill="white"/>
<path d="M142.557 11.5427C143.166 12.267 143.5 13.712 143.521 15.9026V16.5032C143.521 16.9378 143.374 17.0826 142.769 17.0826H136.11C136.131 18.3439 136.317 19.1884 136.676 19.6017C137.03 20.0151 137.786 20.22 138.896 20.22H142.332C142.539 20.22 142.647 20.3225 142.647 20.5309V21.439C142.647 21.6262 142.543 21.7499 142.353 21.7711C141.433 21.8947 140.258 21.9583 138.857 21.9583C136.908 21.9583 135.612 21.5874 135.003 20.8419C134.394 20.0787 134.082 18.5489 134.082 16.2135C134.082 13.8781 134.397 12.3518 135.003 11.5851C135.612 10.8219 136.908 10.4474 138.857 10.4474C140.713 10.4474 141.948 10.8184 142.557 11.5427ZM136.65 12.8429C136.296 13.2774 136.106 14.1431 136.084 15.4645H141.508C141.486 14.1219 141.3 13.2527 140.963 12.8217C140.627 12.3871 139.917 12.1822 138.85 12.1822C137.739 12.1822 137.005 12.4118 136.65 12.8429Z" fill="white"/>
<path d="M156.002 6.23599C156.21 6.23599 156.318 6.33845 156.318 6.54691V21.273C156.318 21.4602 156.214 21.5839 155.981 21.6051C154.494 21.8312 153.029 21.9549 151.625 21.9549C149.949 21.9549 148.924 21.7464 148.15 21.273C147.018 20.4462 146.768 19.0224 146.746 16.2347C146.746 13.8993 147.061 12.373 147.667 11.6063C148.276 10.8432 149.572 10.451 151.521 10.451C152.653 10.451 153.574 10.4934 154.308 10.5959V6.54337C154.308 6.33845 154.412 6.23246 154.623 6.23246H156.002V6.23599ZM154.304 12.1822H151.646C150.389 12.1822 149.594 12.4296 149.261 12.9454C148.924 13.44 148.759 14.5353 148.759 16.21C148.759 17.8635 148.928 18.9376 149.239 19.4534C149.576 19.9692 150.371 20.2166 151.625 20.2166C152.524 20.2166 153.405 20.153 154.304 20.0505V12.1822Z" fill="white"/>
<path d="M168.524 6.21478C168.732 6.21478 168.84 6.31724 168.84 6.54689V21.5415C168.84 21.7464 168.736 21.8524 168.524 21.8524H167.038C166.83 21.8524 166.723 21.7499 166.723 21.5415V6.54336C166.723 6.31724 166.827 6.21125 167.038 6.21125H168.524V6.21478Z" fill="white"/>
<path d="M184.609 7.97066C185.615 9.18959 186.117 11.2141 186.117 14.0229C186.117 16.8529 185.615 18.8774 184.609 20.1175C183.624 21.3365 181.951 21.9548 179.605 21.9548C177.154 21.9548 175.227 21.9124 173.845 21.8099C173.594 21.7887 173.529 21.7463 173.529 21.5202V6.56448C173.529 6.31716 173.594 6.27476 173.845 6.25357C175.227 6.1511 177.154 6.10871 179.605 6.10871C181.947 6.10871 183.624 6.73054 184.609 7.97066ZM175.646 7.94946V20.1175H179.605C181.195 20.1175 182.327 19.6406 182.975 18.7114C183.645 17.7609 183.982 16.1922 183.982 14.0229C183.982 11.8748 183.627 10.3237 182.915 9.37685C182.202 8.42644 181.009 7.953 179.311 7.953H175.646V7.94946Z" fill="white"/>
<path d="M1.16062 6.667C-0.386872 5.14069 -0.386872 2.66751 1.16062 1.14473C2.7081 -0.381577 5.21561 -0.381577 6.75951 1.14473C8.307 2.67104 8.307 5.14423 6.75951 6.667C5.21203 8.19331 2.7081 8.19331 1.16062 6.667Z" fill="white"/>
<path d="M11.395 16.7612C9.8475 15.2349 9.8475 12.7617 11.395 11.2389L21.0238 1.74539C22.5677 0.21908 25.0752 0.21908 26.6227 1.74539C28.1702 3.2717 28.1702 5.74488 26.6227 7.26766L16.9939 16.7612C15.45 18.2875 12.9425 18.2875 11.395 16.7612Z" fill="white"/>
<path d="M21.6294 26.8588C20.0819 25.3325 20.0819 22.8593 21.6294 21.3366L41.9366 1.30729C43.4841 -0.219023 45.9916 -0.219023 47.5355 1.30729C49.0829 2.8336 49.0829 5.30678 47.5355 6.82956L27.2318 26.8588C25.6844 28.3816 23.1769 28.3816 21.6294 26.8588Z" fill="white"/>
</g>
<defs>
<clipPath id="clip0">
<rect width="186.118" height="28" fill="white"/>
</clipPath>
</defs>
</svg>
