<svg width="187" height="28" viewBox="0 0 187 28" fill="none" xmlns="http://www.w3.org/2000/svg">
<g clip-path="url(#clip0)">
<path d="M62.8754 6.21545C62.9793 6.21545 63.0832 6.31791 63.1476 6.54756L66.6223 19.0442C66.8946 20.037 66.977 20.1607 67.3961 20.1607C67.9621 20.1607 68.0445 20.037 68.2952 19.0442L71.6267 6.54756C71.6911 6.32144 71.7735 6.21545 71.8989 6.21545H73.5324C73.7616 6.21545 73.8476 6.31791 73.8046 6.54756L70.3084 19.5389C70.1006 20.3232 69.9108 20.8602 69.7424 21.15C69.4272 21.7294 68.9042 21.9555 67.3961 21.9555C66.4325 21.9555 65.8056 21.8318 65.5119 21.5633C65.2181 21.2948 64.9244 20.6341 64.6307 19.5389L60.9697 6.54403C60.9267 6.31791 61.0127 6.21191 61.2419 6.21191H62.8754V6.21545Z" fill="black"/>
<path d="M83.8165 13.6902V20.919C83.8165 21.2087 83.6911 21.3924 83.4189 21.4984C82.6021 21.8093 81.0511 21.9542 78.7692 21.9542C77.3041 21.9542 76.2545 21.728 75.6491 21.2935C75.0402 20.8377 74.7285 19.9509 74.7285 18.6295C74.7285 16.2552 75.9214 15.4497 78.4361 15.4497L81.8069 15.4285V14.0435C81.8069 12.7433 81.0332 12.1851 79.0844 12.1851H75.9429C75.6921 12.1851 75.6276 12.1215 75.6276 11.8742V11.0262C75.6276 10.8001 75.6921 10.7577 75.9214 10.6941C76.9065 10.528 77.974 10.4468 79.0844 10.4468C82.3514 10.4468 83.8165 11.4396 83.8165 13.6902ZM81.8069 17.0361H78.4755C77.2826 17.0361 76.7166 17.4494 76.7166 18.5836C76.7166 19.9049 77.3435 20.2583 79.1239 20.2583C80.2773 20.2583 81.1549 20.177 81.8033 20.0109V17.0361H81.8069Z" fill="black"/>
<path d="M89.5769 6.21436C89.7846 6.21436 89.8921 6.31682 89.8921 6.52527V21.541C89.8921 21.746 89.7882 21.852 89.5769 21.852H88.1941C87.9864 21.852 87.8789 21.7495 87.8789 21.541V6.52527C87.8789 6.32035 87.9828 6.21436 88.1941 6.21436H89.5769Z" fill="black"/>
<path d="M95.0425 8.465C94.2258 8.465 93.8066 8.05162 93.8066 7.24607C93.8066 6.44052 94.2258 6.04834 95.0425 6.04834C95.8592 6.04834 96.2783 6.44052 96.2783 7.24607C96.2783 8.05162 95.8592 8.465 95.0425 8.465ZM95.7338 10.5495C95.9416 10.5495 96.0491 10.652 96.0491 10.8605V21.5411C96.0491 21.746 95.9452 21.852 95.7338 21.852H94.3511C94.1434 21.852 94.0359 21.7495 94.0359 21.5411V10.8605C94.0359 10.6555 94.1398 10.5495 94.3511 10.5495H95.7338Z" fill="black"/>
<path d="M109.114 6.23547C109.322 6.23547 109.429 6.33793 109.429 6.54638V21.2724C109.429 21.4597 109.325 21.5834 109.092 21.6046C107.606 21.8307 106.141 21.9543 104.736 21.9543C103.06 21.9543 102.035 21.7459 101.262 21.2724C100.13 20.4457 99.8789 19.0218 99.8574 16.2342C99.8574 13.8988 100.173 12.3725 100.778 11.6058C101.387 10.8427 102.684 10.4505 104.632 10.4505C105.764 10.4505 106.685 10.4929 107.419 10.5953V6.54285C107.419 6.33793 107.523 6.23193 107.735 6.23193H109.114V6.23547ZM107.419 12.1817H104.761C103.504 12.1817 102.709 12.429 102.376 12.9449C102.039 13.4395 101.874 14.5348 101.874 16.2095C101.874 17.863 102.043 18.937 102.354 19.4529C102.691 19.9687 103.486 20.216 104.74 20.216C105.639 20.216 106.52 20.1524 107.419 20.05V12.1817Z" fill="black"/>
<path d="M121.953 13.6902V20.919C121.953 21.2087 121.828 21.3924 121.556 21.4984C120.739 21.8093 119.188 21.9542 116.906 21.9542C115.441 21.9542 114.391 21.728 113.786 21.2935C113.177 20.8377 112.865 19.9509 112.865 18.6295C112.865 16.2552 114.058 15.4497 116.573 15.4497L119.944 15.4285V14.0435C119.944 12.7433 119.17 12.1851 117.221 12.1851H114.08C113.829 12.1851 113.764 12.1215 113.764 11.8742V11.0262C113.764 10.8001 113.829 10.7577 114.058 10.6941C115.043 10.528 116.111 10.4468 117.221 10.4468C120.488 10.4468 121.953 11.4396 121.953 13.6902ZM119.944 17.0361H116.612C115.419 17.0361 114.853 17.4494 114.853 18.5836C114.853 19.9049 115.48 20.2583 117.261 20.2583C118.414 20.2583 119.292 20.177 119.94 20.0109V17.0361H119.944Z" fill="black"/>
<path d="M128.236 7.43339C128.465 7.36979 128.59 7.45459 128.59 7.70191V10.5743H130.79C131.019 10.5743 131.126 10.6768 131.126 10.8853V11.8569C131.126 12.0618 131.023 12.1678 130.79 12.1678H128.59V19.1068C128.59 20.0148 128.841 20.2233 129.951 20.2233H130.958C131.187 20.2233 131.295 20.3258 131.295 20.513V21.5058C131.295 21.6931 131.191 21.7955 130.98 21.8379C130.643 21.9192 130.245 21.9616 129.808 21.9616C128.991 21.9616 128.719 21.9616 128.028 21.7955C127.107 21.5694 126.667 21.0112 126.584 19.605V12.1607H125.413C125.205 12.1607 125.098 12.0582 125.098 11.8498V10.8817C125.098 10.6733 125.202 10.5708 125.413 10.5708H126.584V8.09055C126.584 7.9033 126.667 7.80083 126.857 7.75844L128.236 7.43339Z" fill="black"/>
<path d="M142.561 11.542C143.17 12.2663 143.503 13.7114 143.525 15.9019V16.5025C143.525 16.9371 143.378 17.082 142.773 17.082H136.113C136.135 18.3433 136.321 19.1877 136.679 19.6011C137.034 20.0145 137.79 20.2194 138.9 20.2194H142.336C142.543 20.2194 142.651 20.3219 142.651 20.5303V21.4383C142.651 21.6256 142.547 21.7492 142.357 21.7704C141.437 21.8941 140.262 21.9577 138.861 21.9577C136.912 21.9577 135.616 21.5867 135.007 20.8412C134.398 20.0781 134.086 18.5482 134.086 16.2128C134.086 13.8774 134.401 12.3511 135.007 11.5844C135.616 10.8213 136.912 10.4468 138.861 10.4468C140.717 10.4468 141.952 10.8178 142.561 11.542ZM136.654 12.8422C136.3 13.2768 136.11 14.1424 136.088 15.4638H141.512C141.49 14.1212 141.304 13.2521 140.967 12.821C140.631 12.3865 139.921 12.1815 138.854 12.1815C137.743 12.1815 137.009 12.4112 136.654 12.8422Z" fill="black"/>
<path d="M156.004 6.23547C156.212 6.23547 156.32 6.33793 156.32 6.54638V21.2724C156.32 21.4597 156.216 21.5834 155.983 21.6046C154.496 21.8307 153.031 21.9543 151.627 21.9543C149.951 21.9543 148.926 21.7459 148.152 21.2724C147.02 20.4457 146.77 19.0218 146.748 16.2342C146.748 13.8988 147.063 12.3725 147.669 11.6058C148.278 10.8427 149.574 10.4505 151.523 10.4505C152.655 10.4505 153.576 10.4929 154.31 10.5953V6.54285C154.31 6.33793 154.414 6.23193 154.625 6.23193H156.004V6.23547ZM154.306 12.1817H151.648C150.391 12.1817 149.596 12.429 149.263 12.9449C148.926 13.4395 148.761 14.5348 148.761 16.2095C148.761 17.863 148.93 18.937 149.241 19.4529C149.578 19.9687 150.373 20.216 151.627 20.216C152.526 20.216 153.407 20.1524 154.306 20.05V12.1817Z" fill="black"/>
<path d="M168.528 6.21447C168.736 6.21447 168.844 6.31693 168.844 6.54658V21.5412C168.844 21.7461 168.74 21.8521 168.528 21.8521H167.042C166.834 21.8521 166.727 21.7496 166.727 21.5412V6.54305C166.727 6.31693 166.83 6.21094 167.042 6.21094H168.528V6.21447Z" fill="black"/>
<path d="M184.611 7.96987C185.618 9.18879 186.119 11.2133 186.119 14.0221C186.119 16.8521 185.618 18.8766 184.611 20.1167C183.626 21.3357 181.953 21.954 179.607 21.954C177.156 21.954 175.229 21.9116 173.846 21.8091C173.596 21.7879 173.531 21.7455 173.531 21.5194V6.56368C173.531 6.31636 173.596 6.27397 173.846 6.25277C175.229 6.15031 177.156 6.10791 179.607 6.10791C181.949 6.10791 183.626 6.72974 184.611 7.96987ZM175.648 7.94867V20.1167H179.607C181.197 20.1167 182.329 19.6398 182.977 18.7106C183.647 17.7602 183.984 16.1914 183.984 14.0221C183.984 11.874 183.629 10.3229 182.917 9.37605C182.204 8.42564 181.011 7.9522 179.313 7.9522H175.648V7.94867Z" fill="black"/>
<path d="M1.16063 6.667C-0.386875 5.14069 -0.386875 2.66751 1.16063 1.14473C2.70813 -0.381577 5.21565 -0.381577 6.75957 1.14473C8.30707 2.67104 8.30707 5.14423 6.75957 6.667C5.21207 8.19331 2.70813 8.19331 1.16063 6.667Z" fill="#25BF75"/>
<path d="M11.395 16.7611C9.8475 15.2348 9.8475 12.7616 11.395 11.2388L21.0239 1.74532C22.5678 0.219009 25.0753 0.219009 26.6228 1.74532C28.1703 3.27163 28.1703 5.74481 26.6228 7.26759L16.9939 16.7611C15.45 18.2874 12.9425 18.2874 11.395 16.7611Z" fill="#25BF75"/>
<path d="M21.6294 26.8589C20.0819 25.3326 20.0819 22.8594 21.6294 21.3366L41.9367 1.30733C43.4842 -0.21898 45.9918 -0.21898 47.5357 1.30733C49.0832 2.83364 49.0832 5.30682 47.5357 6.8296L27.2319 26.8589C25.6844 28.3816 23.1769 28.3816 21.6294 26.8589Z" fill="#25BF75"/>
</g>
<defs>
<clipPath id="clip0">
<rect width="186.119" height="28" fill="white"/>
</clipPath>
</defs>
</svg>
